<?xml version="1.0" encoding="UTF-8"?>
<!DOCTYPE svg PUBLIC "-//W3C//DTD SVG 1.1//EN" "http://www.w3.org/Graphics/SVG/1.1/DTD/svg11.dtd">
<svg xmlns="http://www.w3.org/2000/svg" version="1.1" width="313px" height="300px" style="shape-rendering:geometricPrecision; text-rendering:geometricPrecision; image-rendering:optimizeQuality; fill-rule:evenodd; clip-rule:evenodd" xmlns:xlink="http://www.w3.org/1999/xlink">
<g><path style="opacity:0.999" fill="#dbdbda" d="M 81.5,49.5 C 131.917,49.0093 182.251,49.5093 232.5,51C 233.662,80.0948 233.828,109.261 233,138.5C 232.5,139 232,139.5 231.5,140C 181.167,140.667 130.833,140.667 80.5,140C 80,139.5 79.5,139 79,138.5C 78.3333,109.5 78.3333,80.5 79,51.5C 79.9947,50.9341 80.828,50.2674 81.5,49.5 Z M 84.5,55.5 C 132.168,55.3333 179.834,55.5 227.5,56C 228.661,81.0943 228.827,106.261 228,131.5C 180.237,132.664 132.404,132.83 84.5,132C 83.1711,106.5 83.1711,81 84.5,55.5 Z M 214.5,117.5 C 214.5,118.5 214.5,119.5 214.5,120.5C 188.5,120.5 162.5,120.5 136.5,120.5C 136.5,119.5 136.5,118.5 136.5,117.5C 162.5,117.5 188.5,117.5 214.5,117.5 Z M 136.5,106.5 C 162.5,106.5 188.5,106.5 214.5,106.5C 214.5,107.5 214.5,108.5 214.5,109.5C 188.831,109.667 163.165,109.5 137.5,109C 136.748,108.329 136.414,107.496 136.5,106.5 Z M 214.5,95.5 C 201.851,96.8325 188.851,97.4992 175.5,97.5C 162.5,97.1667 149.5,96.8333 136.5,96.5C 162.491,95.5002 188.491,95.1669 214.5,95.5 Z M 125.5,85.5 C 125.667,96.8382 125.5,108.172 125,119.5C 116.251,120.484 107.418,120.817 98.5,120.5C 97.8333,120.5 97.5,120.167 97.5,119.5C 97.5,107.833 97.5,96.1667 97.5,84.5C 107.015,84.1731 116.348,84.5064 125.5,85.5 Z M 214.5,84.5 C 214.25,85.9221 213.417,86.9221 212,87.5C 186.899,86.8378 161.732,86.1711 136.5,85.5C 137.242,84.7132 138.075,84.0465 139,83.5C 164.092,84.4946 189.259,84.8279 214.5,84.5 Z M 214.5,67.5 C 214.5,68.5 214.5,69.5 214.5,70.5C 175.5,70.5 136.5,70.5 97.5,70.5C 97.5,69.5 97.5,68.5 97.5,67.5C 136.5,67.5 175.5,67.5 214.5,67.5 Z"/></g>
<g><path style="opacity:1" fill="#a27c45" d="M 86.5,57.5 C 132.835,57.3333 179.168,57.5 225.5,58C 226.142,81.8629 226.308,105.696 226,129.5C 179.571,130.664 133.071,130.83 86.5,130C 85.776,106.133 85.776,81.9663 86.5,57.5 Z M 214.5,117.5 C 188.5,117.5 162.5,117.5 136.5,117.5C 136.5,118.5 136.5,119.5 136.5,120.5C 162.5,120.5 188.5,120.5 214.5,120.5C 214.5,119.5 214.5,118.5 214.5,117.5 Z M 136.5,106.5 C 136.414,107.496 136.748,108.329 137.5,109C 163.165,109.5 188.831,109.667 214.5,109.5C 214.5,108.5 214.5,107.5 214.5,106.5C 188.5,106.5 162.5,106.5 136.5,106.5 Z M 214.5,95.5 C 188.491,95.1669 162.491,95.5002 136.5,96.5C 149.5,96.8333 162.5,97.1667 175.5,97.5C 188.851,97.4992 201.851,96.8325 214.5,95.5 Z M 125.5,85.5 C 125.667,96.8382 125.5,108.172 125,119.5C 116.251,120.484 107.418,120.817 98.5,120.5C 97.8333,120.5 97.5,120.167 97.5,119.5C 97.5,107.833 97.5,96.1667 97.5,84.5C 107.015,84.1731 116.348,84.5064 125.5,85.5 Z M 214.5,84.5 C 189.259,84.8279 164.092,84.4946 139,83.5C 138.075,84.0465 137.242,84.7132 136.5,85.5C 161.732,86.1711 186.899,86.8378 212,87.5C 213.417,86.9221 214.25,85.9221 214.5,84.5 Z M 214.5,67.5 C 214.5,68.5 214.5,69.5 214.5,70.5C 175.5,70.5 136.5,70.5 97.5,70.5C 97.5,69.5 97.5,68.5 97.5,67.5C 136.5,67.5 175.5,67.5 214.5,67.5 Z"/></g>
<g><path style="opacity:1" fill="#fcbc5a" d="M 87.5,59.5 C 133.167,59.5 178.833,59.5 224.5,59.5C 224.5,82.5 224.5,105.5 224.5,128.5C 178.833,128.5 133.167,128.5 87.5,128.5C 87.5,105.5 87.5,82.5 87.5,59.5 Z M 214.5,117.5 C 188.5,117.5 162.5,117.5 136.5,117.5C 136.5,118.5 136.5,119.5 136.5,120.5C 162.5,120.5 188.5,120.5 214.5,120.5C 214.5,119.5 214.5,118.5 214.5,117.5 Z M 136.5,106.5 C 136.414,107.496 136.748,108.329 137.5,109C 163.165,109.5 188.831,109.667 214.5,109.5C 214.5,108.5 214.5,107.5 214.5,106.5C 188.5,106.5 162.5,106.5 136.5,106.5 Z M 214.5,95.5 C 188.491,95.1669 162.491,95.5002 136.5,96.5C 149.5,96.8333 162.5,97.1667 175.5,97.5C 188.851,97.4992 201.851,96.8325 214.5,95.5 Z M 125.5,85.5 C 125.667,96.8382 125.5,108.172 125,119.5C 116.251,120.484 107.418,120.817 98.5,120.5C 97.8333,120.5 97.5,120.167 97.5,119.5C 97.5,107.833 97.5,96.1667 97.5,84.5C 107.015,84.1731 116.348,84.5064 125.5,85.5 Z M 214.5,84.5 C 189.259,84.8279 164.092,84.4946 139,83.5C 138.075,84.0465 137.242,84.7132 136.5,85.5C 161.732,86.1711 186.899,86.8378 212,87.5C 213.417,86.9221 214.25,85.9221 214.5,84.5 Z M 214.5,67.5 C 214.5,68.5 214.5,69.5 214.5,70.5C 175.5,70.5 136.5,70.5 97.5,70.5C 97.5,69.5 97.5,68.5 97.5,67.5C 136.5,67.5 175.5,67.5 214.5,67.5 Z"/></g>
<g><path style="opacity:0.771" fill="#89673b" d="M 125.5,85.5 C 126.495,96.6544 126.828,107.988 126.5,119.5C 122.217,120.827 117.551,121.493 112.5,121.5C 107.654,121.499 102.988,121.166 98.5,120.5C 107.418,120.817 116.251,120.484 125,119.5C 125.5,108.172 125.667,96.8382 125.5,85.5 Z"/></g>
<g><path style="opacity:1" fill="#d9aa65" d="M 214.5,117.5 C 216.71,118.455 217.043,119.955 215.5,122C 189.167,122.667 162.833,122.667 136.5,122C 134.342,120.688 134.009,119.022 135.5,117C 162.003,116.17 188.337,116.337 214.5,117.5 Z M 214.5,117.5 C 188.5,117.5 162.5,117.5 136.5,117.5C 136.5,118.5 136.5,119.5 136.5,120.5C 162.5,120.5 188.5,120.5 214.5,120.5C 214.5,119.5 214.5,118.5 214.5,117.5 Z"/></g>
<g><path style="opacity:1" fill="#d4a763" d="M 136.5,104.5 C 162.835,104.333 189.169,104.5 215.5,105C 216.833,106.667 216.833,108.333 215.5,110C 189.167,110.667 162.833,110.667 136.5,110C 133.892,108.063 133.892,106.23 136.5,104.5 Z M 136.5,106.5 C 136.414,107.496 136.748,108.329 137.5,109C 163.165,109.5 188.831,109.667 214.5,109.5C 214.5,108.5 214.5,107.5 214.5,106.5C 188.5,106.5 162.5,106.5 136.5,106.5 Z"/></g>
<g><path style="opacity:1" fill="#c3924a" d="M 208.5,92.5 C 210.5,92.5 212.5,92.5 214.5,92.5C 214.5,93.5 214.5,94.5 214.5,95.5C 215.434,96.5676 215.768,97.901 215.5,99.5C 189.111,100.316 162.778,100.816 136.5,101C 134.245,98.0223 134.078,94.8557 136,91.5C 160.092,92.4943 184.259,92.8277 208.5,92.5 Z M 214.5,95.5 C 188.491,95.1669 162.491,95.5002 136.5,96.5C 149.5,96.8333 162.5,97.1667 175.5,97.5C 188.851,97.4992 201.851,96.8325 214.5,95.5 Z"/></g>
<g><path style="opacity:1" fill="#b18a52" d="M 126.5,83.5 C 127.82,95.598 127.82,107.598 126.5,119.5C 126.828,107.988 126.495,96.6544 125.5,85.5C 116.348,84.5064 107.015,84.1731 97.5,84.5C 97.5,96.1667 97.5,107.833 97.5,119.5C 95.5209,107.88 94.8542,95.8799 95.5,83.5C 105.863,82.1883 116.197,82.1883 126.5,83.5 Z"/></g>
<g><path style="opacity:0.498" fill="#626165" d="M 99.5,86.5 C 107.5,86.5 115.5,86.5 123.5,86.5C 123.5,97.1667 123.5,107.833 123.5,118.5C 115.5,118.5 107.5,118.5 99.5,118.5C 99.5,107.833 99.5,97.1667 99.5,86.5 Z"/></g>
<g><path style="opacity:1" fill="#fefefd" d="M 100.5,87.5 C 107.833,87.5 115.167,87.5 122.5,87.5C 122.5,97.5 122.5,107.5 122.5,117.5C 115.167,117.5 107.833,117.5 100.5,117.5C 100.5,107.5 100.5,97.5 100.5,87.5 Z"/></g>
<g><path style="opacity:1" fill="#fdbc58" d="M 214.5,92.5 C 212.5,92.5 210.5,92.5 208.5,92.5C 208.196,91.8501 207.863,91.1835 207.5,90.5C 210.447,89.6786 213.447,89.1786 216.5,89C 217.406,87.3005 217.739,85.4672 217.5,83.5C 216.5,83.5 215.5,83.5 214.5,83.5C 187.931,82.1726 161.264,82.1726 134.5,83.5C 133.698,84.9516 133.198,86.6183 133,88.5C 131.667,89.1667 130.333,89.8333 129,90.5C 129.03,87.6385 128.197,85.3052 126.5,83.5C 116.197,82.1883 105.863,82.1883 95.5,83.5C 94.5386,81.7354 94.2053,79.7354 94.5,77.5C 95.5,77.5 96.5,77.5 97.5,77.5C 97.366,75.7085 97.6993,74.0418 98.5,72.5C 137.835,72.6667 177.168,72.5 216.5,72C 217.801,70.3845 217.801,68.8845 216.5,67.5C 215.141,65.9907 215.641,65.324 218,65.5C 221.417,66.812 222.251,69.1453 220.5,72.5C 219.086,73.624 217.586,74.624 216,75.5C 215.505,77.4727 215.338,79.4727 215.5,81.5C 221.933,82.4893 223.267,85.8227 219.5,91.5C 220.263,92.7193 221.263,93.7193 222.5,94.5C 220.877,95.4756 219.543,94.9756 218.5,93C 217.207,92.51 215.873,92.3433 214.5,92.5 Z M 214.5,84.5 C 189.259,84.8279 164.092,84.4946 139,83.5C 138.075,84.0465 137.242,84.7132 136.5,85.5C 161.732,86.1711 186.899,86.8378 212,87.5C 213.417,86.9221 214.25,85.9221 214.5,84.5 Z"/></g>
<g><path style="opacity:1" fill="#a67f45" d="M 214.5,83.5 C 214.5,83.8333 214.5,84.1667 214.5,84.5C 217.365,86.5418 217.032,87.7085 213.5,88C 187.494,88.8332 161.494,88.6665 135.5,87.5C 134.754,86.2638 134.421,84.9305 134.5,83.5C 161.264,82.1726 187.931,82.1726 214.5,83.5 Z M 214.5,84.5 C 189.259,84.8279 164.092,84.4946 139,83.5C 138.075,84.0465 137.242,84.7132 136.5,85.5C 161.732,86.1711 186.899,86.8378 212,87.5C 213.417,86.9221 214.25,85.9221 214.5,84.5 Z"/></g>
<g><path style="opacity:1" fill="#d1a15b" d="M 214.5,67.5 C 215.167,67.5 215.833,67.5 216.5,67.5C 217.801,68.8845 217.801,70.3845 216.5,72C 177.168,72.5 137.835,72.6667 98.5,72.5C 98.1667,71.8333 97.8333,71.1667 97.5,70.5C 136.5,70.5 175.5,70.5 214.5,70.5C 214.5,69.5 214.5,68.5 214.5,67.5 Z"/></g>
<g><path style="opacity:1" fill="#d8a356" d="M 241.5,162.5 C 239.092,161.265 237.092,159.431 235.5,157C 215.5,156.333 195.5,156.333 175.5,157C 176.475,162.741 176.808,168.575 176.5,174.5C 175.553,170.088 174.553,165.588 173.5,161C 161.838,160.5 150.171,160.333 138.5,160.5C 137.399,165.773 136.733,171.106 136.5,176.5C 149.579,176.186 162.579,176.52 175.5,177.5C 162.34,178.66 149.006,178.827 135.5,178C 134.863,175.757 134.53,173.424 134.5,171C 134.821,166.578 135.821,162.411 137.5,158.5C 151.775,156.912 132.109,156.745 78.5,158C 78.9574,158.414 79.2907,158.914 79.5,159.5C 94.3581,160.651 109.025,160.651 123.5,159.5C 123.5,161.167 123.5,162.833 123.5,164.5C 124.043,164.56 124.376,164.893 124.5,165.5C 123.687,166.814 122.687,167.981 121.5,169C 122.252,169.671 122.586,170.504 122.5,171.5C 107.5,171.5 92.5,171.5 77.5,171.5C 77.5,172.5 77.5,173.5 77.5,174.5C 92.9112,174.817 108.245,174.483 123.5,173.5C 115.862,174.831 107.862,175.498 99.5,175.5C 91.5,175.167 83.5,174.833 75.5,174.5C 74.1246,172.837 74.458,171.503 76.5,170.5C 74.5593,162.386 73.0593,162.052 72,169.5C 68.8944,172.087 65.3944,174.087 61.5,175.5C 65.4005,169.384 69.5672,163.384 74,157.5C 75.214,155.951 76.714,154.785 78.5,154C 130.5,153.333 182.5,153.333 234.5,154C 237.423,156.416 239.757,159.25 241.5,162.5 Z M 122.5,171.5 C 123.338,171.842 123.672,172.508 123.5,173.5C 108.245,174.483 92.9112,174.817 77.5,174.5C 77.5,173.5 77.5,172.5 77.5,171.5C 92.5,171.5 107.5,171.5 122.5,171.5 Z M 123.5,164.5 C 123.389,165.117 123.056,165.617 122.5,166C 107.833,166.667 93.1667,166.667 78.5,166C 78.0426,165.586 77.7093,165.086 77.5,164.5C 92.8968,163.184 108.23,163.184 123.5,164.5 Z"/></g>
<g><path style="opacity:1" fill="#fcbc58" d="M 241.5,162.5 C 243.853,164.86 245.853,167.527 247.5,170.5C 247.286,172.144 247.62,173.644 248.5,175C 247.376,175.249 246.376,175.749 245.5,176.5C 247.465,177.292 249.465,177.959 251.5,178.5C 252.429,179.689 252.762,181.022 252.5,182.5C 189.499,182.667 126.499,182.5 63.5,182C 62.4281,180.716 61.0948,180.383 59.5,181C 60.8613,179.416 61.528,177.582 61.5,175.5C 65.3944,174.087 68.8944,172.087 72,169.5C 73.0593,162.052 74.5593,162.386 76.5,170.5C 74.458,171.503 74.1246,172.837 75.5,174.5C 83.5,174.833 91.5,175.167 99.5,175.5C 107.862,175.498 115.862,174.831 123.5,173.5C 123.672,172.508 123.338,171.842 122.5,171.5C 122.586,170.504 122.252,169.671 121.5,169C 122.687,167.981 123.687,166.814 124.5,165.5C 124.376,164.893 124.043,164.56 123.5,164.5C 123.5,162.833 123.5,161.167 123.5,159.5C 109.025,160.651 94.3581,160.651 79.5,159.5C 79.2907,158.914 78.9574,158.414 78.5,158C 132.109,156.745 151.775,156.912 137.5,158.5C 135.821,162.411 134.821,166.578 134.5,171C 134.53,173.424 134.863,175.757 135.5,178C 149.006,178.827 162.34,178.66 175.5,177.5C 175.557,176.391 175.89,175.391 176.5,174.5C 176.808,168.575 176.475,162.741 175.5,157C 195.5,156.333 215.5,156.333 235.5,157C 237.092,159.431 239.092,161.265 241.5,162.5 Z M 189.5,171.5 C 204.5,171.5 219.5,171.5 234.5,171.5C 234.5,172.5 234.5,173.5 234.5,174.5C 219.496,174.667 204.496,174.5 189.5,174C 188.402,173.23 188.402,172.397 189.5,171.5 Z M 122.5,171.5 C 123.338,171.842 123.672,172.508 123.5,173.5C 108.245,174.483 92.9112,174.817 77.5,174.5C 77.5,173.5 77.5,172.5 77.5,171.5C 92.5,171.5 107.5,171.5 122.5,171.5 Z M 234.5,163.5 C 234.586,164.496 234.252,165.329 233.5,166C 218.347,166.981 203.347,166.648 188.5,165C 203.677,163.517 219.011,163.017 234.5,163.5 Z M 123.5,164.5 C 108.23,163.184 92.8968,163.184 77.5,164.5C 77.7093,165.086 78.0426,165.586 78.5,166C 93.1667,166.667 107.833,166.667 122.5,166C 123.056,165.617 123.389,165.117 123.5,164.5 Z M 176.5,174.5 C 175.89,175.391 175.557,176.391 175.5,177.5C 162.579,176.52 149.579,176.186 136.5,176.5C 136.733,171.106 137.399,165.773 138.5,160.5C 150.171,160.333 161.838,160.5 173.5,161C 174.553,165.588 175.553,170.088 176.5,174.5 Z"/></g>
<g><path style="opacity:1" fill="#daa860" d="M 234.5,163.5 C 235.649,163.791 236.316,164.624 236.5,166C 236.299,169.34 235.966,172.674 235.5,176C 219.833,176.667 204.167,176.667 188.5,176C 186.957,173.955 187.29,172.455 189.5,171.5C 201.125,169.683 213.125,168.85 225.5,169C 213.322,167.686 200.989,167.02 188.5,167C 186.246,165.946 185.913,164.446 187.5,162.5C 195.333,162.167 203.167,161.833 211,161.5C 219.196,161.502 227.03,162.169 234.5,163.5 Z M 189.5,171.5 C 188.402,172.397 188.402,173.23 189.5,174C 204.496,174.5 219.496,174.667 234.5,174.5C 234.5,173.5 234.5,172.5 234.5,171.5C 219.5,171.5 204.5,171.5 189.5,171.5 Z M 234.5,163.5 C 219.011,163.017 203.677,163.517 188.5,165C 203.347,166.648 218.347,166.981 233.5,166C 234.252,165.329 234.586,164.496 234.5,163.5 Z"/></g>
<g><path style="opacity:1" fill="#ebebeb" d="M 140.5,162.5 C 150.855,162.168 161.188,162.501 171.5,163.5C 172.352,167.131 173.019,170.798 173.5,174.5C 161.833,174.5 150.167,174.5 138.5,174.5C 139.075,170.477 139.741,166.477 140.5,162.5 Z"/></g>
<g><path style="opacity:1" fill="#f2bc68" d="M 247.5,170.5 C 249.853,172.86 251.853,175.527 253.5,178.5C 254.038,180.117 254.371,181.784 254.5,183.5C 189.167,183.5 123.833,183.5 58.5,183.5C 58.5,182.167 58.5,180.833 58.5,179.5C 58.7376,177.596 59.7376,176.262 61.5,175.5C 61.528,177.582 60.8613,179.416 59.5,181C 61.0948,180.383 62.4281,180.716 63.5,182C 126.499,182.5 189.499,182.667 252.5,182.5C 252.762,181.022 252.429,179.689 251.5,178.5C 249.465,177.959 247.465,177.292 245.5,176.5C 246.376,175.749 247.376,175.249 248.5,175C 247.62,173.644 247.286,172.144 247.5,170.5 Z"/></g>
<g><path style="opacity:0.82" fill="#b28d5a" d="M 253.5,178.5 C 255.28,179.99 255.946,181.99 255.5,184.5C 189.499,184.667 123.499,184.5 57.5,184C 56.0844,182.085 56.4178,180.585 58.5,179.5C 58.5,180.833 58.5,182.167 58.5,183.5C 123.833,183.5 189.167,183.5 254.5,183.5C 254.371,181.784 254.038,180.117 253.5,178.5 Z"/></g>
<g><path style="opacity:1" fill="#e7e7e7" d="M 114.5,202.5 C 114.5,206.833 114.5,211.167 114.5,215.5C 114.941,222.507 115.108,229.507 115,236.5C 113.312,244.513 108.312,248.513 100,248.5C 87.4666,247.635 81.8,240.969 83,228.5C 85.2701,221.6 90.1035,217.933 97.5,217.5C 100.197,218.169 102.863,218.836 105.5,219.5C 105.56,220.043 105.893,220.376 106.5,220.5C 107.487,217.232 107.82,213.898 107.5,210.5C 106.337,204.666 108.671,202 114.5,202.5 Z M 94.5,225.5 C 104.893,224.861 108.226,229.194 104.5,238.5C 97.2428,242.039 92.5762,239.872 90.5,232C 91.25,229.429 92.5833,227.262 94.5,225.5 Z"/></g>
<g><path style="opacity:0.957" fill="#919191" d="M 114.5,202.5 C 115.525,203.374 116.192,204.541 116.5,206C 115.95,209.324 115.283,212.491 114.5,215.5C 114.5,211.167 114.5,206.833 114.5,202.5 Z"/></g>
<g><path style="opacity:1" fill="#af874e" d="M 191.5,210.5 C 191.662,208.473 191.495,206.473 191,204.5C 189.644,203.62 188.144,203.286 186.5,203.5C 186.665,206.518 186.498,209.518 186,212.5C 185.017,215.311 183.851,217.977 182.5,220.5C 182.5,220.167 182.5,219.833 182.5,219.5C 183.006,214.121 183.839,208.787 185,203.5C 192.17,201.212 194.337,203.545 191.5,210.5 Z"/></g>
<g><path style="opacity:0.999" fill="#e7e7e7" d="M 237.5,236.5 C 237.505,232.466 237.838,228.466 238.5,224.5C 240.467,220.333 243.8,217.833 248.5,217C 252.572,216.342 256.572,216.675 260.5,218C 264.486,219.943 265.153,222.61 262.5,226C 258.218,225.371 253.885,225.038 249.5,225C 244.714,227.858 243.714,231.691 246.5,236.5C 249.039,239.04 252.039,239.874 255.5,239C 257.519,237.134 259.852,235.967 262.5,235.5C 264.955,235.112 266.288,236.112 266.5,238.5C 263.958,244.696 259.291,247.363 252.5,246.5C 244.75,247.057 239.75,243.723 237.5,236.5 Z"/></g>
<g><path style="opacity:0.6" fill="#878787" d="M 107.5,210.5 C 107.82,213.898 107.487,217.232 106.5,220.5C 105.893,220.376 105.56,220.043 105.5,219.5C 106.167,216.5 106.833,213.5 107.5,210.5 Z"/></g>
<g><path style="opacity:1" fill="#e4e4e4" d="M 57.5,220.5 C 73.736,220.56 79.236,228.227 74,243.5C 65.9933,252.421 57.66,252.754 49,244.5C 44.0422,233.531 46.8755,225.531 57.5,220.5 Z M 58.5,228.5 C 65.7707,228.036 68.604,231.369 67,238.5C 62.6757,243.932 58.6757,243.599 55,237.5C 54.688,233.938 55.8546,230.938 58.5,228.5 Z"/></g>
<g><path style="opacity:1" fill="#e7e7e7" d="M 124.5,241.5 C 124.5,237.5 124.5,233.5 124.5,229.5C 129.459,220.265 136.792,218.099 146.5,223C 153.098,229.174 154.264,236.341 150,244.5C 143.927,250.396 137.094,251.563 129.5,248C 126.979,246.442 125.312,244.275 124.5,241.5 Z M 135.5,228.5 C 143.018,228.887 145.518,232.554 143,239.5C 137.019,244.215 133.186,242.881 131.5,235.5C 131.577,232.335 132.91,230.001 135.5,228.5 Z"/></g>
<g><path style="opacity:1" fill="#e5e5e5" d="M 200.5,239.5 C 200.552,235.802 200.886,232.135 201.5,228.5C 205.167,221.876 210.833,219.376 218.5,221C 228.584,225.007 231.75,232.174 228,242.5C 221.479,250.755 213.645,252.255 204.5,247C 202.46,244.815 201.126,242.315 200.5,239.5 Z M 212.5,228.5 C 217.519,228.182 220.519,230.515 221.5,235.5C 217.063,244.616 212.397,244.783 207.5,236C 207.818,232.53 209.484,230.03 212.5,228.5 Z"/></g>
<g><path style="opacity:1" fill="#fbbc59" d="M 191.5,210.5 C 190.504,210.414 189.671,210.748 189,211.5C 188.462,216.171 187.962,220.838 187.5,225.5C 185.61,225.297 184.11,225.963 183,227.5C 181.556,225.845 179.722,225.178 177.5,225.5C 173.099,223.908 168.933,224.574 165,227.5C 164.167,227.167 163.333,226.833 162.5,226.5C 163.97,224.028 165.97,222.195 168.5,221C 173.155,220.501 177.821,220.334 182.5,220.5C 183.851,217.977 185.017,215.311 186,212.5C 186.498,209.518 186.665,206.518 186.5,203.5C 188.144,203.286 189.644,203.62 191,204.5C 191.495,206.473 191.662,208.473 191.5,210.5 Z"/></g>
<g><path style="opacity:0.486" fill="#757575" d="M 238.5,224.5 C 237.838,228.466 237.505,232.466 237.5,236.5C 236.842,235.207 236.508,233.707 236.5,232C 236.408,229.179 237.074,226.679 238.5,224.5 Z"/></g>
<g><path style="opacity:0.917" fill="#a1a1a1" d="M 124.5,229.5 C 124.5,233.5 124.5,237.5 124.5,241.5C 121.833,237.5 121.833,233.5 124.5,229.5 Z"/></g>
<g><path style="opacity:0.515" fill="#777777" d="M 201.5,228.5 C 200.886,232.135 200.552,235.802 200.5,239.5C 199.098,235.71 199.431,232.044 201.5,228.5 Z"/></g>
<g><path style="opacity:1" fill="#d09f54" d="M 191.5,210.5 C 191.666,219.839 191.5,229.173 191,238.5C 190.777,240.881 189.61,242.547 187.5,243.5C 187.916,240.594 188.582,237.761 189.5,235C 188.19,231.871 187.19,229.038 186.5,226.5C 185.159,230.384 184.325,234.384 184,238.5C 182.833,239.667 181.667,240.833 180.5,242C 176.848,242.499 173.182,242.665 169.5,242.5C 167.175,239.475 165.175,236.142 163.5,232.5C 162.447,235.815 162.447,239.148 163.5,242.5C 161.864,241.251 160.697,239.584 160,237.5C 157.614,225.887 162.281,219.22 174,217.5C 176.778,218.325 179.611,218.992 182.5,219.5C 182.5,219.833 182.5,220.167 182.5,220.5C 177.821,220.334 173.155,220.501 168.5,221C 165.97,222.195 163.97,224.028 162.5,226.5C 163.333,226.833 164.167,227.167 165,227.5C 168.933,224.574 173.099,223.908 177.5,225.5C 179.722,225.178 181.556,225.845 183,227.5C 184.11,225.963 185.61,225.297 187.5,225.5C 187.962,220.838 188.462,216.171 189,211.5C 189.671,210.748 190.504,210.414 191.5,210.5 Z M 177.5,225.5 C 182.03,227.201 183.864,230.535 183,235.5C 180.774,239.861 177.274,241.361 172.5,240C 167.931,237.459 166.431,233.625 168,228.5C 170.642,225.971 173.808,224.971 177.5,225.5 Z"/></g>
<g><path style="opacity:1" fill="#f4b85a" d="M 187.5,243.5 C 186.657,245.173 185.324,246.34 183.5,247C 177.809,248.56 172.142,248.227 166.5,246C 165.29,244.961 164.29,243.794 163.5,242.5C 162.447,239.148 162.447,235.815 163.5,232.5C 165.175,236.142 167.175,239.475 169.5,242.5C 173.182,242.665 176.848,242.499 180.5,242C 181.667,240.833 182.833,239.667 184,238.5C 184.325,234.384 185.159,230.384 186.5,226.5C 187.19,229.038 188.19,231.871 189.5,235C 188.582,237.761 187.916,240.594 187.5,243.5 Z"/></g>
</svg>
