<?xml version="1.0" encoding="UTF-8"?>
<!DOCTYPE svg PUBLIC "-//W3C//DTD SVG 1.1//EN" "http://www.w3.org/Graphics/SVG/1.1/DTD/svg11.dtd">
<svg xmlns="http://www.w3.org/2000/svg" version="1.1" width="603px" height="414px" style="shape-rendering:geometricPrecision; text-rendering:geometricPrecision; image-rendering:optimizeQuality; fill-rule:evenodd; clip-rule:evenodd" xmlns:xlink="http://www.w3.org/1999/xlink">
<g><path style="opacity:0.985" fill="#1a1819" d="M 94.5,59.5 C 93.6043,58.4937 92.9377,58.4937 92.5,59.5C 91.8931,50.1035 96.5598,45.4368 106.5,45.5C 112.229,45.8992 117.895,46.7325 123.5,48C 127.26,50.1695 128.26,53.1695 126.5,57C 125.552,57.4828 124.552,57.6495 123.5,57.5C 123.286,55.8561 123.62,54.3561 124.5,53C 123.167,51.6667 121.833,50.3333 120.5,49C 115.826,48.5659 111.159,48.0659 106.5,47.5C 98.8078,47.8588 94.8078,51.8588 94.5,59.5 Z"/></g>
<g><path style="opacity:0.926" fill="#161515" d="M 94.5,59.5 C 98.446,58.4731 102.446,58.3064 106.5,59C 107.833,61 107.833,63 106.5,65C 103.167,65.6667 99.8333,65.6667 96.5,65C 96,64.5 95.5,64 95,63.5C 86.9784,69.9968 86.4784,76.9968 93.5,84.5C 93.1583,85.3382 92.4916,85.6716 91.5,85.5C 87.4257,83.0132 85.7591,79.3466 86.5,74.5C 86.6667,72.5 86.8333,70.5 87,68.5C 89.3662,65.7567 91.1995,62.7567 92.5,59.5C 92.9377,58.4937 93.6043,58.4937 94.5,59.5 Z M 104.5,62.5 C 102.153,63.8946 99.8194,63.7279 97.5,62C 100.015,60.2871 102.682,60.1205 105.5,61.5C 105.376,62.1067 105.043,62.44 104.5,62.5 Z"/></g>
<g><path style="opacity:0.69" fill="#1d1a1c" d="M 93.5,84.5 C 100.442,89.3136 107.442,94.147 114.5,99C 124.011,107.853 130.011,118.686 132.5,131.5C 131.778,131.082 131.278,130.416 131,129.5C 130.601,129.728 130.435,130.062 130.5,130.5C 127.323,118.465 120.99,108.298 111.5,100C 104.235,95.8795 97.5684,91.0461 91.5,85.5C 92.4916,85.6716 93.1583,85.3382 93.5,84.5 Z"/></g>
<g><path style="opacity:0.979" fill="#121112" d="M 132.5,131.5 C 134.254,141.082 134.754,150.749 134,160.5C 133.626,162.491 132.793,164.158 131.5,165.5C 130.5,165.5 129.5,165.5 128.5,165.5C 131.638,161.412 132.971,156.746 132.5,151.5C 131.979,144.478 131.312,137.478 130.5,130.5C 130.435,130.062 130.601,129.728 131,129.5C 131.278,130.416 131.778,131.082 132.5,131.5 Z"/></g>
<g><path style="opacity:0.812" fill="#1c1a1b" d="M 128.5,165.5 C 129.5,165.5 130.5,165.5 131.5,165.5C 127.197,175.926 121.863,185.76 115.5,195C 111.487,197.006 107.82,199.506 104.5,202.5C 105.524,203.852 106.524,205.185 107.5,206.5C 106.508,206.328 105.842,206.662 105.5,207.5C 104.5,206.833 103.5,206.167 102.5,205.5C 102.611,204.883 102.944,204.383 103.5,204C 102.504,202.987 101.504,202.154 100.5,201.5C 98.2383,202.467 95.905,203.134 93.5,203.5C 94.1667,202.833 94.8333,202.167 95.5,201.5C 96.8333,201.5 97.5,200.833 97.5,199.5C 99.0683,200.473 100.735,200.64 102.5,200C 105.58,197.71 108.747,195.543 112,193.5C 117.764,184.304 123.264,174.97 128.5,165.5 Z"/></g>
<g><path style="opacity:0.964" fill="#161316" d="M 97.5,199.5 C 97.5,200.833 96.8333,201.5 95.5,201.5C 91.5735,197.774 86.9069,196.608 81.5,198C 80.0183,200.592 80.3517,202.925 82.5,205C 86.3225,205.585 89.9892,205.085 93.5,203.5C 95.905,203.134 98.2383,202.467 100.5,201.5C 101.504,202.154 102.504,202.987 103.5,204C 102.944,204.383 102.611,204.883 102.5,205.5C 101.279,204.972 100.113,204.305 99,203.5C 93.3006,207.055 87.1339,208.221 80.5,207C 78.4766,203.817 77.9766,200.317 79,196.5C 79.6667,195.833 80.3333,195.167 81,194.5C 84.7454,195.297 88.5787,195.797 92.5,196C 94.1957,197.176 95.8624,198.343 97.5,199.5 Z M 95.5,201.5 C 94.8333,202.167 94.1667,202.833 93.5,203.5C 89.9892,205.085 86.3225,205.585 82.5,205C 80.3517,202.925 80.0183,200.592 81.5,198C 86.9069,196.608 91.5735,197.774 95.5,201.5 Z"/></g>
<g><path style="opacity:0.412" fill="#1b1819" d="M 287.5,213.5 C 286.167,214.167 284.833,214.833 283.5,215.5C 279.708,215.021 276.541,213.354 274,210.5C 262.015,217.128 249.515,221.128 236.5,222.5C 236.158,221.662 235.492,221.328 234.5,221.5C 246.535,218.478 258.535,214.145 270.5,208.5C 269.438,205.897 269.272,203.23 270,200.5C 271.644,197.049 273.811,196.716 276.5,199.5C 277.324,202.785 277.824,206.118 278,209.5C 280.908,211.515 284.074,212.848 287.5,213.5 Z"/></g>
<g><path style="opacity:0.345" fill="#413f41" d="M 391.5,210.5 C 393.948,209.527 396.615,209.194 399.5,209.5C 399.5,210.167 399.833,210.5 400.5,210.5C 400.158,211.338 399.492,211.672 398.5,211.5C 396.393,210.532 394.059,210.198 391.5,210.5 Z"/></g>
<g><path style="opacity:0.981" fill="#0e0c0d" d="M 399.5,209.5 C 423.839,209.493 448.173,209.827 472.5,210.5C 464.016,211.493 455.349,211.826 446.5,211.5C 431.181,210.686 415.848,210.352 400.5,210.5C 399.833,210.5 399.5,210.167 399.5,209.5 Z"/></g>
<g><path style="opacity:0.989" fill="#191818" d="M 391.5,210.5 C 394.059,210.198 396.393,210.532 398.5,211.5C 382.168,212.833 365.835,214.167 349.5,215.5C 348.791,214.596 347.791,214.263 346.5,214.5C 361.256,212.079 376.256,210.745 391.5,210.5 Z"/></g>
<g><path style="opacity:0.988" fill="#1d1b1c" d="M 472.5,210.5 C 491.06,211.566 508.727,216.566 525.5,225.5C 527.859,228.851 530.192,232.185 532.5,235.5C 531.957,235.56 531.624,235.893 531.5,236.5C 532.098,237.795 532.598,239.128 533,240.5C 533.69,241.738 534.19,241.738 534.5,240.5C 535.806,243.142 536.806,245.975 537.5,249C 537.272,249.399 536.938,249.565 536.5,249.5C 535.619,247.151 534.619,245.485 533.5,244.5C 530.459,238.764 527.125,233.098 523.5,227.5C 519.811,225.656 516.144,223.822 512.5,222C 501.21,219.675 489.877,216.675 478.5,213C 467.659,212.83 456.992,212.33 446.5,211.5C 455.349,211.826 464.016,211.493 472.5,210.5 Z"/></g>
<g><path style="opacity:0.992" fill="#141212" d="M 287.5,213.5 C 306.972,214.406 326.639,214.739 346.5,214.5C 347.791,214.263 348.791,214.596 349.5,215.5C 330.667,216.161 311.833,216.827 293,217.5C 289.883,216.696 286.716,216.03 283.5,215.5C 284.833,214.833 286.167,214.167 287.5,213.5 Z"/></g>
<g><path style="opacity:0.976" fill="#1a1819" d="M 107.5,206.5 C 115.664,210.412 123.997,214.079 132.5,217.5C 133.086,217.291 133.586,216.957 134,216.5C 141.148,218.519 148.315,219.852 155.5,220.5C 152.287,220.19 149.287,220.523 146.5,221.5C 131.714,220.46 118.048,215.793 105.5,207.5C 105.842,206.662 106.508,206.328 107.5,206.5 Z"/></g>
<g><path style="opacity:0.983" fill="#161415" d="M 146.5,221.5 C 149.287,220.523 152.287,220.19 155.5,220.5C 181.831,220.97 208.165,221.303 234.5,221.5C 235.492,221.328 236.158,221.662 236.5,222.5C 206.645,223.588 176.645,223.255 146.5,221.5 Z"/></g>
<g><path style="opacity:0.29" fill="#464345" d="M 532.5,235.5 C 533.942,236.82 534.608,238.486 534.5,240.5C 534.19,241.738 533.69,241.738 533,240.5C 532.598,239.128 532.098,237.795 531.5,236.5C 531.624,235.893 531.957,235.56 532.5,235.5 Z"/></g>
<g><path style="opacity:0.954" fill="#0c0b0d" d="M 536.5,249.5 C 536.925,265.785 536.925,282.118 536.5,298.5C 535.506,288.013 535.172,277.346 535.5,266.5C 535.698,259.076 535.032,251.743 533.5,244.5C 534.619,245.485 535.619,247.151 536.5,249.5 Z"/></g>
<g><path style="opacity:0.914" fill="#121113" d="M 535.5,266.5 C 535.172,277.346 535.506,288.013 536.5,298.5C 539.161,305.484 542.661,312.151 547,318.5C 550.333,327.677 551.166,337.011 549.5,346.5C 548.508,346.672 547.842,346.338 547.5,345.5C 548.431,337.061 547.598,328.728 545,320.5C 540.908,314.234 537.575,307.567 535,300.5C 534.174,288.992 534.341,277.659 535.5,266.5 Z"/></g>
<g><path style="opacity:0.952" fill="#171516" d="M 547.5,345.5 C 547.842,346.338 548.508,346.672 549.5,346.5C 546.12,352.707 540.787,356.207 533.5,357C 524.193,358.016 514.86,358.683 505.5,359C 503.077,360.571 501.744,362.737 501.5,365.5C 500.325,365.719 499.325,365.386 498.5,364.5C 499.005,361.812 500.338,359.645 502.5,358C 512.488,356.89 522.488,355.89 532.5,355C 538.917,353.807 543.917,350.64 547.5,345.5 Z"/></g>
</svg>
