<?xml version="1.0" standalone="no"?>
<!DOCTYPE svg PUBLIC "-//W3C//DTD SVG 20010904//EN"
 "http://www.w3.org/TR/2001/REC-SVG-20010904/DTD/svg10.dtd">
<svg version="1.0" xmlns="http://www.w3.org/2000/svg"
 width="514.000000pt" height="486.000000pt" viewBox="0 0 514.000000 486.000000"
 preserveAspectRatio="xMidYMid meet">

<g transform="translate(0.000000,486.000000) scale(0.100000,-0.100000)"
fill="#000000" stroke="none">
<path d="M1095 4353 c-35 -9 -72 -41 -86 -75 -12 -27 -14 -175 -14 -838 0
-771 1 -806 19 -836 37 -61 63 -69 239 -69 l158 0 -3 -70 -3 -70 -192 -5
c-174 -5 -194 -7 -220 -26 -15 -11 -112 -133 -215 -270 -173 -229 -188 -252
-188 -291 0 -34 5 -46 31 -67 l31 -26 1865 0 1865 0 29 29 c22 23 29 39 29 69
0 36 -18 63 -191 291 -104 138 -202 259 -217 269 -22 14 -58 18 -217 22 l-190
5 -3 70 -3 70 153 0 c175 0 206 8 240 64 l23 36 0 817 c0 810 0 817 -21 845
-11 15 -36 36 -55 45 -32 17 -120 18 -1439 17 -773 -1 -1414 -4 -1425 -6z
m2733 -880 l2 -683 -1315 0 -1315 0 0 678 c0 373 3 682 7 685 3 4 594 6 1312
5 l1306 -3 3 -682z m-268 -1013 l0 -70 -1045 0 -1045 0 0 73 0 72 1045 -3
1045 -2 0 -70z m459 -147 c16 -16 106 -130 200 -255 175 -233 193 -266 152
-288 -27 -14 -3685 -14 -3712 0 -10 6 -19 20 -19 32 0 20 274 393 363 494 l39
44 1474 0 1474 0 29 -27z"/>
<path d="M1403 3954 c-3 -8 -1 -20 4 -25 5 -5 436 -8 1114 -7 1096 3 1104 3
1104 23 0 20 -8 20 -1108 23 -999 2 -1108 1 -1114 -14z"/>
<path d="M1418 3649 c-17 -9 -18 -36 -18 -332 0 -238 3 -326 12 -335 9 -9 80
-12 258 -12 227 0 248 2 263 18 15 16 17 54 17 330 0 269 -2 313 -16 326 -13
14 -50 16 -257 16 -146 0 -249 -5 -259 -11z"/>
<path d="M2143 3644 c-3 -8 -1 -20 4 -25 5 -5 295 -8 744 -7 726 3 734 3 734
23 0 20 -8 20 -738 23 -663 2 -738 1 -744 -14z"/>
<path d="M2146 3441 c-4 -5 -3 -16 0 -25 6 -15 76 -16 743 -14 728 3 736 3
736 23 0 20 -8 20 -737 23 -438 1 -739 -2 -742 -7z"/>
<path d="M2149 3224 c-11 -14 -10 -18 6 -30 16 -12 139 -14 734 -14 394 0 722
4 729 9 8 5 12 17 10 27 -3 18 -28 19 -734 22 -663 2 -733 1 -745 -14z"/>
<path d="M2156 3017 c-11 -8 -15 -19 -10 -30 6 -16 52 -17 742 -15 712 3 737
4 740 22 2 10 -2 22 -10 27 -7 5 -335 9 -729 9 -564 0 -719 -3 -733 -13z"/>
<path d="M2182 2193 c-14 -27 -47 -271 -38 -280 4 -4 170 -10 369 -13 272 -4
366 -2 376 7 12 10 12 27 -3 120 -10 59 -22 125 -27 146 l-10 37 -329 0 c-303
0 -330 -1 -338 -17z"/>
<path d="M1030 2135 c0 -19 5 -25 23 -25 541 -2 832 1 840 9 5 5 7 17 4 25 -6
14 -55 16 -437 16 l-430 0 0 -25z"/>
<path d="M3133 2144 c-3 -8 -1 -20 4 -25 15 -15 855 -13 864 2 23 38 11 39
-432 39 -381 0 -430 -2 -436 -16z"/>
<path d="M1034 1995 c-4 -8 -4 -22 0 -30 5 -13 61 -15 423 -15 230 0 424 4
431 9 8 5 12 17 10 27 -3 18 -21 19 -431 22 -374 2 -428 0 -433 -13z"/>
<path d="M3142 2001 c-8 -5 -12 -17 -10 -27 3 -18 21 -19 429 -22 370 -2 428
0 439 13 10 12 10 18 0 30 -11 13 -71 15 -429 15 -229 0 -422 -4 -429 -9z"/>
<path d="M1596 1378 c-19 -30 -35 -120 -43 -243 l-6 -101 -51 26 c-70 34 -186
35 -264 1 -96 -43 -142 -120 -142 -238 0 -124 58 -226 158 -275 62 -30 211
-33 284 -5 57 22 123 91 137 143 6 22 11 133 11 259 0 121 5 266 12 322 13
117 7 133 -48 133 -24 0 -38 -7 -48 -22z m-174 -419 c130 -28 183 -176 94
-265 -39 -39 -103 -58 -165 -49 -77 12 -151 104 -151 190 0 38 36 89 80 112
49 26 68 28 142 12z"/>
<path d="M3108 1383 c-19 -22 -37 -123 -45 -252 l-6 -97 -51 26 c-70 34 -186
35 -264 1 -96 -43 -142 -120 -142 -238 0 -124 58 -226 158 -275 39 -19 63 -23
142 -23 112 0 157 14 213 64 72 65 77 85 77 346 0 127 5 276 12 332 9 82 9
105 -1 117 -18 21 -74 20 -93 -1z m-176 -424 c169 -37 186 -263 23 -308 -102
-28 -182 9 -226 104 -37 79 -14 153 61 192 49 26 68 28 142 12z"/>
<path d="M4327 1105 c-140 -38 -217 -155 -205 -309 7 -77 34 -132 92 -183 55
-49 113 -66 212 -66 60 1 85 6 129 28 85 41 123 103 95 156 -13 23 -62 26 -80
3 -20 -23 -91 -61 -129 -68 -47 -8 -105 9 -146 45 -95 84 -58 235 66 269 37
11 53 10 104 -4 33 -10 73 -20 88 -23 49 -10 81 39 61 92 -9 23 -70 51 -139
64 -71 13 -87 13 -148 -4z"/>
<path d="M570 1031 c-121 -39 -200 -152 -200 -285 0 -58 42 -157 81 -193 46
-42 118 -67 194 -66 112 0 192 49 242 147 72 142 20 301 -121 373 -54 27 -150
39 -196 24z m157 -146 c57 -38 81 -132 49 -193 -28 -53 -62 -75 -124 -80 -47
-3 -63 0 -92 20 -70 47 -86 130 -39 206 31 51 75 74 133 68 27 -3 59 -12 73
-21z"/>
<path d="M2059 1025 c-56 -18 -119 -77 -151 -143 -34 -70 -32 -188 4 -257 49
-95 127 -139 243 -139 112 0 191 50 248 158 31 58 31 184 0 241 -64 120 -216
181 -344 140z m143 -125 c75 -21 122 -135 85 -206 -29 -56 -62 -77 -125 -81
-88 -6 -148 41 -159 124 -9 74 69 173 136 173 14 0 43 -5 63 -10z"/>
<path d="M3590 1031 c-81 -26 -136 -78 -176 -165 -23 -50 -26 -68 -22 -125 12
-158 117 -256 273 -255 112 1 191 50 243 148 36 68 38 189 5 251 -46 87 -139
145 -238 151 -33 2 -71 0 -85 -5z m157 -147 c57 -37 81 -131 49 -192 -28 -53
-62 -75 -124 -80 -47 -3 -63 0 -92 20 -72 48 -87 135 -36 210 43 66 138 85
203 42z"/>
</g>
</svg>
