<?xml version="1.0" standalone="no"?>
<!DOCTYPE svg PUBLIC "-//W3C//DTD SVG 20010904//EN"
 "http://www.w3.org/TR/2001/REC-SVG-20010904/DTD/svg10.dtd">
<svg version="1.0" xmlns="http://www.w3.org/2000/svg"
 width="475.000000pt" height="427.000000pt" viewBox="0 0 475.000000 427.000000"
 preserveAspectRatio="xMidYMid meet">

<g transform="translate(0.000000,427.000000) scale(0.100000,-0.100000)"
fill="#000000" stroke="none">
<path d="M829 4146 c-67 -46 -64 -2 -64 -946 0 -818 1 -857 19 -898 32 -70 70
-82 264 -82 l162 0 0 -75 0 -75 -198 0 c-171 0 -202 -2 -232 -18 -25 -13 -93
-95 -242 -293 -191 -253 -207 -277 -207 -316 -1 -30 6 -50 23 -70 l24 -28
1994 -3 c1487 -2 2000 1 2021 9 33 14 57 56 57 101 0 27 -34 79 -195 293 -107
143 -211 274 -231 290 l-36 30 -206 5 -207 5 -3 73 -3 72 162 0 c196 0 234 12
269 84 20 43 20 50 18 908 -3 813 -4 866 -21 891 -10 16 -32 37 -50 47 -31 20
-63 20 -1557 20 l-1525 0 -36 -24z m2969 -915 c2 -573 0 -727 -10 -733 -13 -9
-2756 -9 -2790 -1 -17 4 -18 47 -18 727 0 397 3 726 7 729 3 4 637 6 1407 5
l1401 -3 3 -724z m-288 -1086 l0 -75 -1120 0 -1120 0 0 75 0 75 1120 0 1120 0
0 -75z m499 -173 c67 -72 391 -509 391 -529 0 -10 -5 -24 -12 -31 -9 -9 -467
-12 -2000 -12 -1977 0 -1987 0 -1998 20 -8 15 -7 26 1 43 20 37 381 511 403
529 20 16 119 18 1600 18 l1579 0 36 -38z"/>
<path d="M1204 3745 c-4 -8 -4 -22 0 -30 5 -13 143 -15 1188 -13 l1183 3 0 25
0 25 -1183 3 c-1045 2 -1183 0 -1188 -13z"/>
<path d="M1216 3414 c-14 -13 -16 -60 -16 -358 0 -253 3 -345 12 -354 17 -17
539 -17 556 0 9 9 12 103 12 360 0 333 -1 348 -19 358 -12 6 -118 10 -275 10
-218 0 -257 -2 -270 -16z"/>
<path d="M2001 3416 c-6 -7 -9 -21 -5 -30 6 -15 73 -16 793 -14 l786 3 0 25 0
25 -781 3 c-654 2 -783 0 -793 -12z"/>
<path d="M2008 3199 c-24 -13 -23 -36 1 -49 21 -11 1507 -15 1549 -4 26 7 31
48 6 58 -28 11 -1538 6 -1556 -5z"/>
<path d="M2005 2966 c-11 -8 -16 -19 -12 -30 6 -15 73 -16 797 -16 l790 0 0
24 c0 13 -7 27 -16 30 -9 3 -359 6 -778 6 -626 0 -765 -2 -781 -14z"/>
<path d="M2000 2735 c-7 -8 -10 -22 -6 -30 5 -13 96 -15 793 -13 762 3 788 4
791 22 2 10 -2 22 -10 27 -7 5 -360 9 -784 9 -671 0 -773 -2 -784 -15z"/>
<path d="M2031 1857 c-5 -12 -17 -82 -27 -155 -16 -116 -16 -134 -3 -147 12
-12 75 -15 397 -15 210 -1 387 2 392 5 6 3 10 19 10 34 0 38 -38 251 -50 279
l-10 22 -350 0 -350 0 -9 -23z"/>
<path d="M800 1796 c0 -13 7 -27 16 -30 20 -8 878 -8 898 0 9 3 16 17 16 30
l0 24 -465 0 -465 0 0 -24z"/>
<path d="M3057 1813 c-13 -12 -7 -41 9 -47 9 -3 213 -6 454 -6 380 0 441 2
454 15 8 9 13 22 10 30 -5 13 -70 15 -463 15 -252 0 -461 -3 -464 -7z"/>
<path d="M804 1645 c-4 -8 -4 -22 0 -30 5 -13 63 -15 463 -13 l458 3 0 25 0
25 -458 3 c-400 2 -458 0 -463 -13z"/>
<path d="M3062 1651 c-8 -5 -12 -17 -10 -27 3 -18 22 -19 457 -22 474 -2 492
-1 470 39 -9 18 -28 19 -457 19 -246 0 -453 -4 -460 -9z"/>
<path d="M1416 997 c-24 -18 -44 -120 -52 -270 -7 -108 -8 -116 -24 -102 -51
46 -204 63 -296 32 -66 -23 -126 -74 -155 -134 -33 -71 -32 -197 3 -274 29
-64 80 -119 141 -151 37 -20 57 -23 157 -23 96 0 122 3 160 21 54 25 94 64
124 119 20 38 21 54 22 310 1 154 6 298 12 335 16 87 15 116 -4 134 -19 19
-64 21 -88 3z m-151 -476 c86 -38 124 -128 91 -215 -19 -51 -38 -69 -89 -91
-80 -33 -192 -8 -237 55 -75 106 -51 215 60 265 42 18 115 13 175 -14z"/>
<path d="M3031 993 c-27 -22 -48 -133 -53 -275 -2 -54 -6 -98 -10 -98 -4 0
-22 9 -40 19 -50 29 -148 44 -213 32 -163 -30 -243 -135 -233 -305 7 -101 37
-165 104 -225 64 -56 130 -75 248 -69 139 7 211 50 257 153 22 48 23 63 24
335 1 185 6 305 14 343 11 51 10 62 -4 83 -19 29 -63 32 -94 7z m-197 -458
c104 -27 146 -77 146 -173 0 -63 -30 -109 -90 -140 -105 -53 -222 -13 -271 93
-28 61 -25 114 11 163 17 23 31 42 33 42 1 0 20 7 42 15 51 18 59 18 129 0z"/>
<path d="M4351 700 c-161 -33 -249 -155 -239 -329 10 -177 117 -272 307 -274
115 -1 201 36 250 108 28 41 23 77 -13 101 -28 18 -49 11 -103 -37 -81 -70
-208 -61 -276 20 -33 40 -41 68 -35 130 12 124 142 180 285 122 80 -32 122 -5
111 70 -8 61 -173 112 -287 89z"/>
<path d="M276 600 c-65 -25 -110 -71 -148 -148 -44 -89 -44 -175 1 -266 57
-116 142 -162 281 -154 119 7 193 59 246 173 35 73 34 182 -2 254 -65 130
-239 195 -378 141z m202 -146 c15 -11 37 -40 50 -65 29 -54 25 -104 -13 -161
-61 -92 -199 -90 -263 3 -47 68 -13 195 63 234 40 21 127 15 163 -11z"/>
<path d="M1909 607 c-84 -32 -122 -67 -170 -157 -20 -37 -24 -60 -24 -130 0
-72 4 -92 27 -135 56 -107 136 -155 258 -155 90 0 155 27 212 86 141 148 103
380 -77 471 -61 31 -170 41 -226 20z m168 -146 c51 -24 83 -79 83 -144 0 -82
-75 -157 -158 -157 -96 0 -171 82 -158 173 18 121 122 178 233 128z"/>
<path d="M3506 600 c-61 -24 -105 -66 -142 -133 -22 -42 -29 -68 -32 -135 -4
-77 -2 -87 27 -147 56 -114 140 -160 280 -154 65 3 85 9 127 34 161 100 197
319 75 458 -74 84 -230 120 -335 77z m178 -134 c46 -19 87 -77 93 -129 6 -54
-28 -123 -76 -154 -67 -45 -171 -22 -219 48 -20 28 -23 44 -20 91 9 123 111
190 222 144z"/>
</g>
</svg>
