<?xml version="1.0" standalone="no"?>
<!DOCTYPE svg PUBLIC "-//W3C//DTD SVG 20010904//EN"
 "http://www.w3.org/TR/2001/REC-SVG-20010904/DTD/svg10.dtd">
<svg version="1.0" xmlns="http://www.w3.org/2000/svg"
 width="437.000000pt" height="311.000000pt" viewBox="0 0 437.000000 311.000000"
 preserveAspectRatio="xMidYMid meet">

<g transform="translate(0.000000,311.000000) scale(0.100000,-0.100000)"
fill="#000000" stroke="none">
<path d="M649 2946 c-67 -46 -64 -2 -64 -946 0 -818 1 -857 19 -898 32 -70 70
-82 264 -82 l162 0 0 -75 0 -75 -198 0 c-171 0 -202 -2 -232 -18 -25 -13 -93
-95 -242 -293 -192 -254 -207 -277 -208 -316 0 -30 7 -50 24 -70 l24 -28 1994
-3 c1487 -2 2000 1 2021 9 33 14 57 56 57 101 0 28 -34 79 -204 304 -112 149
-217 279 -233 290 -25 17 -52 20 -233 24 l-205 5 -3 73 -3 72 162 0 c184 0
228 12 264 72 20 32 20 54 20 908 0 827 -1 877 -18 903 -10 16 -32 37 -50 47
-31 20 -63 20 -1557 20 l-1525 0 -36 -24z m2969 -915 c2 -573 0 -727 -10 -733
-13 -9 -2756 -9 -2790 -1 -17 4 -18 47 -18 727 0 397 3 726 7 729 3 4 637 6
1407 5 l1401 -3 3 -724z m-288 -1086 l0 -75 -1120 0 -1120 0 0 75 0 75 1120 0
1120 0 0 -75z m484 -157 c46 -40 405 -522 406 -544 0 -11 -5 -25 -12 -32 -9
-9 -467 -12 -2000 -12 -1983 0 -1987 0 -1998 20 -8 15 -8 27 2 45 20 38 378
508 402 527 20 16 119 18 1598 18 l1577 0 25 -22z"/>
<path d="M1024 2545 c-4 -8 -4 -22 0 -30 5 -13 143 -15 1188 -13 l1183 3 0 25
0 25 -1183 3 c-1045 2 -1183 0 -1188 -13z"/>
<path d="M1036 2214 c-14 -13 -16 -60 -16 -358 0 -253 3 -345 12 -354 17 -17
539 -17 556 0 9 9 12 103 12 360 0 333 -1 348 -19 358 -12 6 -118 10 -275 10
-218 0 -257 -2 -270 -16z"/>
<path d="M1821 2216 c-6 -7 -9 -21 -5 -30 6 -15 73 -16 793 -14 l786 3 0 25 0
25 -781 3 c-654 2 -783 0 -793 -12z"/>
<path d="M1828 1999 c-24 -13 -23 -36 1 -49 21 -11 1507 -15 1549 -4 26 7 31
48 6 58 -28 11 -1538 6 -1556 -5z"/>
<path d="M1825 1766 c-11 -8 -16 -19 -12 -30 6 -15 73 -16 797 -16 l790 0 0
24 c0 13 -7 27 -16 30 -9 3 -359 6 -778 6 -626 0 -765 -2 -781 -14z"/>
<path d="M1820 1535 c-7 -8 -10 -22 -6 -30 5 -13 96 -15 793 -13 762 3 788 4
791 22 2 10 -2 22 -10 27 -7 5 -360 9 -784 9 -671 0 -773 -2 -784 -15z"/>
<path d="M1851 657 c-5 -12 -17 -82 -27 -155 -16 -116 -16 -134 -3 -147 12
-12 75 -15 397 -15 210 -1 387 2 392 5 6 3 10 18 10 33 0 43 -42 276 -53 290
-7 9 -91 12 -358 12 l-349 0 -9 -23z"/>
<path d="M620 596 c0 -13 7 -27 16 -30 20 -8 878 -8 898 0 9 3 16 17 16 30 l0
24 -465 0 -465 0 0 -24z"/>
<path d="M2877 613 c-13 -12 -7 -41 9 -47 20 -8 878 -8 898 0 9 3 16 17 16 30
l0 24 -458 0 c-252 0 -462 -3 -465 -7z"/>
<path d="M624 445 c-4 -8 -4 -22 0 -30 5 -13 63 -15 463 -13 l458 3 0 25 0 25
-458 3 c-400 2 -458 0 -463 -13z"/>
<path d="M2874 445 c-4 -8 -4 -22 0 -30 5 -13 65 -15 459 -15 473 0 488 1 466
42 -9 17 -33 18 -465 18 -395 0 -455 -2 -460 -15z"/>
</g>
</svg>
