<?xml version="1.0" standalone="no"?>
<!DOCTYPE svg PUBLIC "-//W3C//DTD SVG 20010904//EN"
 "http://www.w3.org/TR/2001/REC-SVG-20010904/DTD/svg10.dtd">
<svg version="1.0" xmlns="http://www.w3.org/2000/svg"
 width="474.000000pt" height="112.000000pt" viewBox="0 0 474.000000 112.000000"
 preserveAspectRatio="xMidYMid meet">

<g transform="translate(0.000000,112.000000) scale(0.100000,-0.100000)"
fill="#000000" stroke="none">
<path d="M1386 1037 c-24 -18 -44 -120 -52 -270 -7 -108 -8 -116 -24 -102 -51
46 -204 63 -296 32 -66 -23 -126 -74 -154 -134 -26 -55 -32 -169 -12 -239 27
-93 112 -179 202 -204 53 -15 180 -12 239 6 61 18 123 69 154 128 21 39 22 54
23 311 1 154 6 298 12 335 16 87 15 116 -4 134 -19 19 -64 21 -88 3z m-157
-473 c104 -43 142 -168 79 -257 -63 -89 -244 -87 -308 3 -75 106 -51 215 60
265 40 17 112 13 169 -11z"/>
<path d="M3003 1035 c-14 -10 -25 -34 -32 -68 -15 -73 -33 -285 -26 -297 10
-16 -11 -12 -47 9 -50 30 -148 44 -214 32 -152 -28 -234 -127 -234 -282 0 -99
29 -171 96 -236 69 -68 129 -87 258 -81 139 7 211 50 257 153 22 48 23 63 24
335 1 185 6 305 14 343 11 51 10 62 -4 83 -18 28 -59 32 -92 9z m-199 -460
c104 -27 146 -77 146 -173 0 -63 -30 -109 -90 -140 -105 -53 -222 -13 -271 93
-28 61 -25 114 11 163 17 23 31 42 33 42 1 0 20 7 42 15 51 18 59 18 129 0z"/>
<path d="M4321 740 c-151 -31 -241 -145 -241 -305 0 -138 67 -242 179 -280 65
-21 191 -24 246 -5 127 43 192 149 121 196 -28 18 -49 11 -103 -37 -81 -70
-208 -61 -276 20 -33 40 -41 68 -35 130 12 124 142 180 285 122 80 -32 122 -5
111 70 -8 61 -173 112 -287 89z"/>
<path d="M246 640 c-65 -25 -110 -71 -148 -148 -44 -89 -44 -175 1 -266 53
-109 135 -157 265 -157 115 0 202 55 256 163 26 52 30 72 30 138 0 62 -5 86
-26 129 -65 130 -239 195 -378 141z m202 -146 c15 -11 37 -40 50 -65 29 -54
25 -104 -13 -161 -83 -125 -285 -67 -285 82 0 61 35 127 80 152 45 24 129 20
168 -8z"/>
<path d="M1890 651 c-87 -28 -132 -68 -181 -161 -20 -37 -24 -60 -24 -130 0
-72 4 -92 27 -135 56 -107 136 -155 258 -155 90 0 155 27 212 86 180 188 62
489 -197 500 -38 2 -81 0 -95 -5z m174 -156 c64 -42 86 -153 43 -216 -70 -104
-197 -106 -271 -6 -15 21 -21 43 -21 81 1 62 26 111 76 144 29 20 43 23 90 19
31 -3 69 -13 83 -22z"/>
<path d="M3476 640 c-61 -24 -105 -66 -142 -133 -22 -42 -29 -68 -32 -135 -4
-77 -2 -87 27 -147 54 -109 133 -155 266 -155 121 0 208 59 263 179 48 104 29
227 -47 314 -74 84 -230 120 -335 77z m178 -134 c82 -34 119 -144 74 -221 -63
-108 -207 -115 -276 -14 -20 28 -23 44 -20 91 9 123 111 190 222 144z"/>
</g>
</svg>
